<svg width="24" height="24" viewBox="0 0 24 24" fill="none" xmlns="http://www.w3.org/2000/svg">
<path d="M5.76794 9.89307C5.52824 9.89307 5.31517 9.98752 5.15536 10.1629C4.98225 10.3383 4.90234 10.5542 4.90234 10.8106C4.90234 11.067 4.98225 11.2694 5.15536 11.4583C5.32848 11.6337 5.52824 11.7282 5.76794 11.7282C6.00765 11.7282 6.22072 11.6337 6.39384 11.4583C6.56696 11.2829 6.66017 11.067 6.66017 10.8106C6.66017 10.5542 6.56696 10.3383 6.39384 10.1629C6.22072 9.97403 6.02096 9.89307 5.76794 9.89307Z" fill="#962608"/>
<path d="M13.2386 9.87927C12.9989 9.87927 12.7859 9.97373 12.6261 10.1491C12.4529 10.3245 12.373 10.5404 12.373 10.7968C12.373 11.0532 12.4529 11.2556 12.6261 11.4445C12.7992 11.6199 12.9989 11.7144 13.2386 11.7144C13.4783 11.7144 13.6914 11.6199 13.8645 11.4445C14.0377 11.2691 14.1309 11.0532 14.1309 10.7968C14.1309 10.5404 14.0377 10.338 13.8645 10.1491C13.7047 9.96023 13.4917 9.87927 13.2386 9.87927Z" fill="#962608"/>
<path d="M18.2318 9.89307C17.9921 9.89307 17.779 9.98752 17.6192 10.1629C17.4461 10.3383 17.3662 10.5542 17.3662 10.8106C17.3662 11.067 17.4461 11.2694 17.6192 11.4583C17.7924 11.6337 17.9921 11.7282 18.2318 11.7282C18.4715 11.7282 18.6846 11.6337 18.8577 11.4583C19.0308 11.2829 19.1241 11.067 19.1241 10.8106C19.1241 10.5542 19.0308 10.3383 18.8577 10.1629C18.6846 9.97403 18.4715 9.89307 18.2318 9.89307Z" fill="#962608"/>
<path d="M20.4431 3.22729H3.55729C2.26555 3.22729 1.2002 4.30676 1.2002 5.6156V15.2903C1.2002 16.5991 2.26555 17.6786 3.55729 17.6786H10.1891C10.1891 17.6786 11.4675 21.2273 11.9336 21.2273C12.3997 21.2273 13.7847 17.6786 13.7847 17.6786H20.4431C21.7348 17.6786 22.8002 16.5991 22.8002 15.2903V5.6156C22.8002 4.30676 21.7348 3.22729 20.4431 3.22729ZM7.47245 12.1598C7.13953 12.5376 6.62017 12.6996 6.06086 12.6996C5.55482 12.6996 5.18195 12.5511 4.91561 12.3352H4.90229V12.6051H3.63719V7.00541H4.90229V9.15083H4.92893C5.27516 8.85398 5.72794 8.75953 6.26061 8.73254C6.71339 8.71905 7.1928 9.00241 7.48577 9.33974C7.76542 9.67707 7.97849 10.2033 7.97849 10.7835C7.97849 11.4177 7.81869 11.782 7.47245 12.1598ZM10.2024 12.6591H8.91068C8.91068 12.6591 8.91068 9.71755 8.91068 9.19131C8.91068 8.39521 8.28478 8.28726 8.28478 8.28726V6.89746C8.28478 6.89746 10.0959 7.00541 10.2024 9.23179C10.2024 9.86598 10.2024 12.6591 10.2024 12.6591ZM15.2762 11.5931C15.1696 11.8495 15.0098 12.0654 14.7967 12.2678C14.597 12.4567 14.3573 12.6051 14.0909 12.7131C13.8246 12.821 13.545 12.875 13.252 12.875C12.959 12.875 12.6794 12.821 12.4263 12.7131C12.16 12.6051 11.9203 12.4567 11.7205 12.2678C11.5075 12.0654 11.3477 11.836 11.2411 11.5931C11.1346 11.3502 11.0813 11.0804 11.0813 10.797C11.0813 10.5137 11.1346 10.2573 11.2411 10.0009C11.3477 9.75803 11.5075 9.52864 11.7205 9.32625C11.9336 9.13734 12.16 8.98891 12.4263 8.88097C12.6927 8.77302 12.9723 8.71905 13.252 8.71905C13.545 8.71905 13.8246 8.77302 14.0909 8.88097C14.3573 8.98891 14.597 9.13734 14.7967 9.32625C15.0098 9.52864 15.1563 9.74454 15.2762 10.0009C15.3827 10.2573 15.436 10.5137 15.436 10.797C15.436 11.0804 15.3827 11.3367 15.2762 11.5931ZM20.3632 12.1463C20.3632 13.1313 20.1768 13.725 19.7506 14.1433C19.2313 14.6426 18.4988 14.6696 17.8863 14.5886V13.5766C18.4056 13.6306 19.1114 13.2798 19.1114 12.6051V12.3487H19.0981C18.8051 12.7535 18.3923 12.902 17.8197 12.902C17.3003 12.902 16.8475 12.7131 16.5413 12.3487C16.235 11.9844 16.0885 11.4987 16.0885 10.8915C16.0885 10.2033 16.2616 9.66358 16.5945 9.25878C16.9408 8.85398 17.4202 8.66508 17.9795 8.66508C18.4722 8.66508 18.7918 8.78652 19.0981 9.06987H19.1114V8.75953H20.3765V12.1463H20.3632Z" fill="#962608"/>
</svg>
